# xmcd
#
# Track frame offsets: 
#        150
#        34056
#        55848
#        83391
#        98754
#        123817
#        138790
#        155508
#        170216
#        199375
#
# Disc length: 2900 seconds
#
# Revision: 0
# Processed by: cddbd v1.5.2PL0 Copyright (c) Steve Scherf et al.
# Submitted via: ExactAudioCopy v0.95b3
#
DISCID=7b0b520a
DTITLE=Reckless Kelly - Reckless Kelly Was Here [CD1]
DYEAR=2006
DGENRE=Country
TTITLE0=Sixgun
TTITLE1=Castanets
TTITLE2=Motel Cowboy Show
TTITLE3=I Still Do
TTITLE4=1952 Vincent Black Lighting
TTITLE5=Seven Nights In Eire
TTITLE6=Break My Heart Tonight
TTITLE7=Nobody's Girl
TTITLE8=He Say May/Guacamole
TTITLE9=Vancouver
EXTD=
EXTT0=
EXTT1=
EXTT2=
EXTT3=
EXTT4=
EXTT5=
EXTT6=
EXTT7=
EXTT8=
EXTT9=
PLAYORDER=
